<svg xmlns="http://www.w3.org/2000/svg" xmlns:xlink="http://www.w3.org/1999/xlink" width="350" zoomAndPan="magnify" viewBox="0 0 262.5 112.499997" height="150" preserveAspectRatio="xMidYMid meet" version="1.0"><defs><g/><clipPath id="32e883cde0"><path d="M 0.0859375 3 L 15 3 L 15 16 L 0.0859375 16 Z M 0.0859375 3 " clip-rule="nonzero"/></clipPath><clipPath id="55734251a9"><rect x="0" width="246" y="0" height="38"/></clipPath></defs><g transform="matrix(1, 0, 0, 1, 11, 37)"><g clip-path="url(#55734251a9)"><g clip-path="url(#32e883cde0)"><g fill="#2461e9" fill-opacity="1"><g transform="translate(0.364115, 15.170583)"><g><path d="M 10.046875 0.15625 L 3.40625 -9.3125 L 3.34375 -9.3125 L 3.34375 -2.859375 C 3.34375 -2.359375 3.359375 -1.960938 3.390625 -1.671875 C 3.429688 -1.390625 3.507812 -1.164062 3.625 -1 C 3.738281 -0.84375 3.894531 -0.738281 4.09375 -0.6875 C 4.300781 -0.632812 4.570312 -0.601562 4.90625 -0.59375 L 4.90625 0 L 0.453125 0 L 0.453125 -0.59375 C 0.816406 -0.601562 1.109375 -0.632812 1.328125 -0.6875 C 1.554688 -0.75 1.734375 -0.851562 1.859375 -1 C 1.984375 -1.15625 2.066406 -1.367188 2.109375 -1.640625 C 2.148438 -1.910156 2.171875 -2.28125 2.171875 -2.75 L 2.171875 -8.78125 C 2.171875 -9.195312 2.148438 -9.539062 2.109375 -9.8125 C 2.066406 -10.09375 1.988281 -10.3125 1.875 -10.46875 C 1.769531 -10.632812 1.613281 -10.75 1.40625 -10.8125 C 1.207031 -10.875 0.9375 -10.914062 0.59375 -10.9375 L 0.59375 -11.53125 L 4.78125 -11.53125 L 10.8125 -2.875 L 10.875 -2.875 L 10.875 -8.671875 C 10.875 -9.160156 10.859375 -9.550781 10.828125 -9.84375 C 10.796875 -10.144531 10.71875 -10.375 10.59375 -10.53125 C 10.476562 -10.695312 10.316406 -10.800781 10.109375 -10.84375 C 9.910156 -10.894531 9.644531 -10.925781 9.3125 -10.9375 L 9.3125 -11.53125 L 13.765625 -11.53125 L 13.765625 -10.9375 C 13.398438 -10.925781 13.101562 -10.894531 12.875 -10.84375 C 12.65625 -10.789062 12.484375 -10.6875 12.359375 -10.53125 C 12.234375 -10.382812 12.148438 -10.171875 12.109375 -9.890625 C 12.066406 -9.609375 12.046875 -9.238281 12.046875 -8.78125 L 12.046875 0.15625 Z M 10.046875 0.15625 "/></g></g></g></g><g fill="#2461e9" fill-opacity="1"><g transform="translate(19.571731, 15.170583)"><g><path d="M 7.5 -3.484375 L 3.265625 -3.484375 C 2.796875 -2.429688 2.5625 -1.695312 2.5625 -1.28125 C 2.5625 -0.988281 2.671875 -0.800781 2.890625 -0.71875 C 3.117188 -0.632812 3.457031 -0.59375 3.90625 -0.59375 L 3.90625 0 L -0.1875 0 L -0.1875 -0.59375 C 0.0507812 -0.625 0.253906 -0.664062 0.421875 -0.71875 C 0.597656 -0.769531 0.753906 -0.835938 0.890625 -0.921875 C 1.023438 -1.015625 1.140625 -1.132812 1.234375 -1.28125 C 1.335938 -1.425781 1.4375 -1.601562 1.53125 -1.8125 L 5.46875 -11.6875 L 6.578125 -11.6875 L 10.15625 -2.9375 C 10.363281 -2.425781 10.539062 -2.023438 10.6875 -1.734375 C 10.832031 -1.441406 10.988281 -1.21875 11.15625 -1.0625 C 11.320312 -0.914062 11.507812 -0.8125 11.71875 -0.75 C 11.9375 -0.6875 12.21875 -0.640625 12.5625 -0.609375 L 12.5625 0 L 6.890625 0 L 6.890625 -0.609375 C 7.367188 -0.628906 7.710938 -0.679688 7.921875 -0.765625 C 8.128906 -0.847656 8.234375 -1.007812 8.234375 -1.25 C 8.234375 -1.382812 8.195312 -1.5625 8.125 -1.78125 C 8.0625 -2 7.972656 -2.269531 7.859375 -2.59375 Z M 3.609375 -4.390625 L 7.171875 -4.390625 L 5.453125 -8.9375 L 5.390625 -8.9375 Z M 3.609375 -4.390625 "/></g></g></g><g fill="#2461e9" fill-opacity="1"><g transform="translate(36.816662, 15.170583)"><g><path d="M 12.21875 -8.234375 L 11.5625 -8.234375 C 11.53125 -8.722656 11.457031 -9.128906 11.34375 -9.453125 C 11.226562 -9.785156 11.066406 -10.046875 10.859375 -10.234375 C 10.648438 -10.429688 10.394531 -10.566406 10.09375 -10.640625 C 9.800781 -10.722656 9.453125 -10.765625 9.046875 -10.765625 C 8.660156 -10.765625 8.347656 -10.753906 8.109375 -10.734375 C 7.878906 -10.722656 7.703125 -10.695312 7.578125 -10.65625 C 7.453125 -10.625 7.367188 -10.578125 7.328125 -10.515625 C 7.285156 -10.453125 7.265625 -10.378906 7.265625 -10.296875 L 7.265625 -2.4375 C 7.265625 -2.125 7.285156 -1.851562 7.328125 -1.625 C 7.378906 -1.394531 7.472656 -1.207031 7.609375 -1.0625 C 7.753906 -0.914062 7.957031 -0.800781 8.21875 -0.71875 C 8.488281 -0.644531 8.847656 -0.601562 9.296875 -0.59375 L 9.296875 0 L 3.015625 0 L 3.015625 -0.59375 C 3.460938 -0.601562 3.820312 -0.644531 4.09375 -0.71875 C 4.363281 -0.800781 4.570312 -0.914062 4.71875 -1.0625 C 4.863281 -1.207031 4.957031 -1.394531 5 -1.625 C 5.039062 -1.851562 5.0625 -2.125 5.0625 -2.4375 L 5.0625 -10.296875 C 5.0625 -10.378906 5.039062 -10.453125 5 -10.515625 C 4.96875 -10.578125 4.894531 -10.625 4.78125 -10.65625 C 4.675781 -10.695312 4.519531 -10.722656 4.3125 -10.734375 C 4.113281 -10.753906 3.847656 -10.765625 3.515625 -10.765625 C 3.160156 -10.765625 2.816406 -10.742188 2.484375 -10.703125 C 2.160156 -10.671875 1.875 -10.570312 1.625 -10.40625 C 1.375 -10.238281 1.171875 -9.988281 1.015625 -9.65625 C 0.859375 -9.320312 0.773438 -8.847656 0.765625 -8.234375 L 0.1875 -8.234375 L 0.328125 -11.53125 L 12.0625 -11.53125 Z M 12.21875 -8.234375 "/></g></g></g><g fill="#2461e9" fill-opacity="1"><g transform="translate(54.331274, 15.170583)"><g><path d="M 12.0625 -2.40625 C 12.0625 -2.03125 12.078125 -1.722656 12.109375 -1.484375 C 12.148438 -1.253906 12.226562 -1.078125 12.34375 -0.953125 C 12.457031 -0.828125 12.613281 -0.738281 12.8125 -0.6875 C 13.019531 -0.632812 13.296875 -0.601562 13.640625 -0.59375 L 13.640625 0 L 8.140625 0 L 8.140625 -0.59375 C 8.503906 -0.601562 8.796875 -0.632812 9.015625 -0.6875 C 9.242188 -0.738281 9.421875 -0.820312 9.546875 -0.9375 C 9.671875 -1.0625 9.753906 -1.234375 9.796875 -1.453125 C 9.835938 -1.671875 9.859375 -1.957031 9.859375 -2.3125 L 9.859375 -5.4375 L 4.296875 -5.4375 L 4.296875 -2.40625 C 4.296875 -2.03125 4.316406 -1.722656 4.359375 -1.484375 C 4.398438 -1.253906 4.476562 -1.078125 4.59375 -0.953125 C 4.71875 -0.828125 4.890625 -0.738281 5.109375 -0.6875 C 5.335938 -0.632812 5.640625 -0.601562 6.015625 -0.59375 L 6.015625 0 L 0.53125 0 L 0.53125 -0.59375 C 0.863281 -0.601562 1.128906 -0.632812 1.328125 -0.6875 C 1.535156 -0.738281 1.695312 -0.820312 1.8125 -0.9375 C 1.925781 -1.0625 2 -1.234375 2.03125 -1.453125 C 2.070312 -1.671875 2.09375 -1.957031 2.09375 -2.3125 L 2.09375 -9.234375 C 2.09375 -9.578125 2.078125 -9.859375 2.046875 -10.078125 C 2.015625 -10.296875 1.945312 -10.46875 1.84375 -10.59375 C 1.738281 -10.71875 1.59375 -10.800781 1.40625 -10.84375 C 1.226562 -10.882812 0.988281 -10.914062 0.6875 -10.9375 L 0.6875 -11.53125 L 5.859375 -11.53125 L 5.859375 -10.9375 C 5.515625 -10.925781 5.238281 -10.894531 5.03125 -10.84375 C 4.832031 -10.800781 4.675781 -10.710938 4.5625 -10.578125 C 4.457031 -10.453125 4.382812 -10.269531 4.34375 -10.03125 C 4.3125 -9.800781 4.296875 -9.5 4.296875 -9.125 L 4.296875 -6.375 L 9.859375 -6.375 L 9.859375 -9.234375 C 9.859375 -9.578125 9.835938 -9.859375 9.796875 -10.078125 C 9.753906 -10.296875 9.675781 -10.46875 9.5625 -10.59375 C 9.457031 -10.71875 9.300781 -10.800781 9.09375 -10.84375 C 8.894531 -10.882812 8.625 -10.914062 8.28125 -10.9375 L 8.28125 -11.53125 L 13.46875 -11.53125 L 13.46875 -10.9375 C 13.164062 -10.925781 12.921875 -10.894531 12.734375 -10.84375 C 12.554688 -10.800781 12.414062 -10.710938 12.3125 -10.578125 C 12.21875 -10.453125 12.148438 -10.269531 12.109375 -10.03125 C 12.078125 -9.800781 12.0625 -9.5 12.0625 -9.125 Z M 12.0625 -2.40625 "/></g></g></g><g fill="#2461e9" fill-opacity="1"><g transform="translate(73.6138, 15.170583)"><g><path d="M 7.5 -3.484375 L 3.265625 -3.484375 C 2.796875 -2.429688 2.5625 -1.695312 2.5625 -1.28125 C 2.5625 -0.988281 2.671875 -0.800781 2.890625 -0.71875 C 3.117188 -0.632812 3.457031 -0.59375 3.90625 -0.59375 L 3.90625 0 L -0.1875 0 L -0.1875 -0.59375 C 0.0507812 -0.625 0.253906 -0.664062 0.421875 -0.71875 C 0.597656 -0.769531 0.753906 -0.835938 0.890625 -0.921875 C 1.023438 -1.015625 1.140625 -1.132812 1.234375 -1.28125 C 1.335938 -1.425781 1.4375 -1.601562 1.53125 -1.8125 L 5.46875 -11.6875 L 6.578125 -11.6875 L 10.15625 -2.9375 C 10.363281 -2.425781 10.539062 -2.023438 10.6875 -1.734375 C 10.832031 -1.441406 10.988281 -1.21875 11.15625 -1.0625 C 11.320312 -0.914062 11.507812 -0.8125 11.71875 -0.75 C 11.9375 -0.6875 12.21875 -0.640625 12.5625 -0.609375 L 12.5625 0 L 6.890625 0 L 6.890625 -0.609375 C 7.367188 -0.628906 7.710938 -0.679688 7.921875 -0.765625 C 8.128906 -0.847656 8.234375 -1.007812 8.234375 -1.25 C 8.234375 -1.382812 8.195312 -1.5625 8.125 -1.78125 C 8.0625 -2 7.972656 -2.269531 7.859375 -2.59375 Z M 3.609375 -4.390625 L 7.171875 -4.390625 L 5.453125 -8.9375 L 5.390625 -8.9375 Z M 3.609375 -4.390625 "/></g></g></g><g fill="#2461e9" fill-opacity="1"><g transform="translate(90.858732, 15.170583)"><g><path d="M 10.046875 0.15625 L 3.40625 -9.3125 L 3.34375 -9.3125 L 3.34375 -2.859375 C 3.34375 -2.359375 3.359375 -1.960938 3.390625 -1.671875 C 3.429688 -1.390625 3.507812 -1.164062 3.625 -1 C 3.738281 -0.84375 3.894531 -0.738281 4.09375 -0.6875 C 4.300781 -0.632812 4.570312 -0.601562 4.90625 -0.59375 L 4.90625 0 L 0.453125 0 L 0.453125 -0.59375 C 0.816406 -0.601562 1.109375 -0.632812 1.328125 -0.6875 C 1.554688 -0.75 1.734375 -0.851562 1.859375 -1 C 1.984375 -1.15625 2.066406 -1.367188 2.109375 -1.640625 C 2.148438 -1.910156 2.171875 -2.28125 2.171875 -2.75 L 2.171875 -8.78125 C 2.171875 -9.195312 2.148438 -9.539062 2.109375 -9.8125 C 2.066406 -10.09375 1.988281 -10.3125 1.875 -10.46875 C 1.769531 -10.632812 1.613281 -10.75 1.40625 -10.8125 C 1.207031 -10.875 0.9375 -10.914062 0.59375 -10.9375 L 0.59375 -11.53125 L 4.78125 -11.53125 L 10.8125 -2.875 L 10.875 -2.875 L 10.875 -8.671875 C 10.875 -9.160156 10.859375 -9.550781 10.828125 -9.84375 C 10.796875 -10.144531 10.71875 -10.375 10.59375 -10.53125 C 10.476562 -10.695312 10.316406 -10.800781 10.109375 -10.84375 C 9.910156 -10.894531 9.644531 -10.925781 9.3125 -10.9375 L 9.3125 -11.53125 L 13.765625 -11.53125 L 13.765625 -10.9375 C 13.398438 -10.925781 13.101562 -10.894531 12.875 -10.84375 C 12.65625 -10.789062 12.484375 -10.6875 12.359375 -10.53125 C 12.234375 -10.382812 12.148438 -10.171875 12.109375 -9.890625 C 12.066406 -9.609375 12.046875 -9.238281 12.046875 -8.78125 L 12.046875 0.15625 Z M 10.046875 0.15625 "/></g></g></g><g fill="#2461e9" fill-opacity="1"><g transform="translate(55.6373, 32.993371)"><g><path d="M 10.484375 -8.328125 C 10.484375 -7.253906 10.0625 -6.429688 9.21875 -5.859375 C 8.382812 -5.296875 7.171875 -5.015625 5.578125 -5.015625 L 4.296875 -5.015625 L 4.296875 -2.375 C 4.296875 -2 4.320312 -1.691406 4.375 -1.453125 C 4.425781 -1.222656 4.53125 -1.039062 4.6875 -0.90625 C 4.851562 -0.78125 5.070312 -0.695312 5.34375 -0.65625 C 5.625 -0.613281 6 -0.59375 6.46875 -0.59375 L 6.46875 0 L 0.53125 0 L 0.53125 -0.59375 C 0.851562 -0.601562 1.117188 -0.632812 1.328125 -0.6875 C 1.535156 -0.738281 1.695312 -0.820312 1.8125 -0.9375 C 1.925781 -1.0625 2 -1.234375 2.03125 -1.453125 C 2.070312 -1.671875 2.09375 -1.957031 2.09375 -2.3125 L 2.09375 -9.234375 C 2.09375 -9.578125 2.078125 -9.859375 2.046875 -10.078125 C 2.015625 -10.296875 1.945312 -10.46875 1.84375 -10.59375 C 1.738281 -10.71875 1.59375 -10.800781 1.40625 -10.84375 C 1.226562 -10.882812 0.988281 -10.914062 0.6875 -10.9375 L 0.6875 -11.53125 L 5.875 -11.53125 C 7.394531 -11.53125 8.539062 -11.257812 9.3125 -10.71875 C 10.09375 -10.1875 10.484375 -9.390625 10.484375 -8.328125 Z M 4.296875 -5.921875 L 5.28125 -5.921875 C 6.25 -5.921875 6.957031 -6.113281 7.40625 -6.5 C 7.851562 -6.894531 8.078125 -7.507812 8.078125 -8.34375 C 8.078125 -9.09375 7.882812 -9.671875 7.5 -10.078125 C 7.125 -10.492188 6.53125 -10.703125 5.71875 -10.703125 L 4.5625 -10.703125 C 4.382812 -10.703125 4.296875 -10.613281 4.296875 -10.4375 Z M 4.296875 -5.921875 "/></g></g></g><g fill="#2461e9" fill-opacity="1"><g transform="translate(71.503857, 32.993371)"><g><path d="M 10.421875 -8.640625 C 10.421875 -7.816406 10.175781 -7.125 9.6875 -6.5625 C 9.207031 -6 8.445312 -5.625 7.40625 -5.4375 L 10.875 -1.453125 C 11.113281 -1.171875 11.398438 -0.957031 11.734375 -0.8125 C 12.066406 -0.664062 12.398438 -0.59375 12.734375 -0.59375 L 12.734375 0 L 9.1875 0 L 5.46875 -4.5625 C 5.21875 -4.851562 5 -5.050781 4.8125 -5.15625 C 4.632812 -5.257812 4.460938 -5.3125 4.296875 -5.3125 L 4.296875 -2.375 C 4.296875 -2.007812 4.320312 -1.707031 4.375 -1.46875 C 4.425781 -1.238281 4.523438 -1.054688 4.671875 -0.921875 C 4.828125 -0.796875 5.046875 -0.707031 5.328125 -0.65625 C 5.609375 -0.613281 5.988281 -0.59375 6.46875 -0.59375 L 6.46875 0 L 0.53125 0 L 0.53125 -0.59375 C 0.851562 -0.59375 1.117188 -0.613281 1.328125 -0.65625 C 1.535156 -0.707031 1.695312 -0.796875 1.8125 -0.921875 C 1.925781 -1.046875 2 -1.21875 2.03125 -1.4375 C 2.070312 -1.664062 2.09375 -1.957031 2.09375 -2.3125 L 2.09375 -9.234375 C 2.09375 -9.578125 2.078125 -9.859375 2.046875 -10.078125 C 2.023438 -10.296875 1.960938 -10.46875 1.859375 -10.59375 C 1.753906 -10.71875 1.609375 -10.800781 1.421875 -10.84375 C 1.242188 -10.882812 1 -10.914062 0.6875 -10.9375 L 0.6875 -11.53125 L 5.875 -11.53125 C 7.320312 -11.53125 8.441406 -11.273438 9.234375 -10.765625 C 10.023438 -10.265625 10.421875 -9.554688 10.421875 -8.640625 Z M 4.296875 -6.21875 L 5.28125 -6.21875 C 6.21875 -6.21875 6.914062 -6.398438 7.375 -6.765625 C 7.84375 -7.128906 8.078125 -7.734375 8.078125 -8.578125 C 8.078125 -9.210938 7.878906 -9.722656 7.484375 -10.109375 C 7.097656 -10.503906 6.5625 -10.703125 5.875 -10.703125 L 4.5625 -10.703125 C 4.382812 -10.703125 4.296875 -10.613281 4.296875 -10.4375 Z M 4.296875 -6.21875 "/></g></g></g><g fill="#2461e9" fill-opacity="1"><g transform="translate(88.838682, 32.993371)"><g><path d="M 7.078125 -11.6875 C 7.972656 -11.6875 8.8125 -11.53125 9.59375 -11.21875 C 10.375 -10.914062 11.050781 -10.492188 11.625 -9.953125 C 12.195312 -9.410156 12.644531 -8.773438 12.96875 -8.046875 C 13.300781 -7.316406 13.46875 -6.523438 13.46875 -5.671875 C 13.46875 -4.867188 13.300781 -4.113281 12.96875 -3.40625 C 12.632812 -2.695312 12.179688 -2.078125 11.609375 -1.546875 C 11.035156 -1.023438 10.359375 -0.609375 9.578125 -0.296875 C 8.796875 0.00390625 7.960938 0.15625 7.078125 0.15625 C 6.179688 0.15625 5.34375 0.00390625 4.5625 -0.296875 C 3.789062 -0.609375 3.113281 -1.023438 2.53125 -1.546875 C 1.945312 -2.078125 1.488281 -2.695312 1.15625 -3.40625 C 0.832031 -4.113281 0.671875 -4.867188 0.671875 -5.671875 C 0.671875 -6.523438 0.832031 -7.316406 1.15625 -8.046875 C 1.488281 -8.773438 1.941406 -9.410156 2.515625 -9.953125 C 3.097656 -10.492188 3.773438 -10.914062 4.546875 -11.21875 C 5.328125 -11.53125 6.171875 -11.6875 7.078125 -11.6875 Z M 7.078125 -0.828125 C 7.648438 -0.828125 8.171875 -0.9375 8.640625 -1.15625 C 9.109375 -1.382812 9.507812 -1.703125 9.84375 -2.109375 C 10.175781 -2.523438 10.425781 -3.03125 10.59375 -3.625 C 10.769531 -4.226562 10.859375 -4.898438 10.859375 -5.640625 C 10.859375 -6.410156 10.769531 -7.109375 10.59375 -7.734375 C 10.425781 -8.359375 10.175781 -8.894531 9.84375 -9.34375 C 9.507812 -9.789062 9.109375 -10.128906 8.640625 -10.359375 C 8.171875 -10.597656 7.648438 -10.71875 7.078125 -10.71875 C 6.484375 -10.71875 5.953125 -10.597656 5.484375 -10.359375 C 5.023438 -10.128906 4.628906 -9.789062 4.296875 -9.34375 C 3.972656 -8.894531 3.722656 -8.359375 3.546875 -7.734375 C 3.367188 -7.109375 3.28125 -6.410156 3.28125 -5.640625 C 3.28125 -4.898438 3.367188 -4.226562 3.546875 -3.625 C 3.722656 -3.03125 3.972656 -2.523438 4.296875 -2.109375 C 4.628906 -1.703125 5.023438 -1.382812 5.484375 -1.15625 C 5.953125 -0.9375 6.484375 -0.828125 7.078125 -0.828125 Z M 7.078125 -0.828125 "/></g></g></g><g fill="#2461e9" fill-opacity="1"><g transform="translate(108.091249, 32.993371)"><g><path d="M 0.53125 0 L 0.53125 -0.59375 C 0.851562 -0.601562 1.117188 -0.628906 1.328125 -0.671875 C 1.535156 -0.722656 1.695312 -0.8125 1.8125 -0.9375 C 1.925781 -1.0625 2 -1.226562 2.03125 -1.4375 C 2.070312 -1.65625 2.09375 -1.945312 2.09375 -2.3125 L 2.09375 -9.234375 C 2.09375 -9.578125 2.078125 -9.859375 2.046875 -10.078125 C 2.023438 -10.296875 1.960938 -10.46875 1.859375 -10.59375 C 1.753906 -10.71875 1.613281 -10.800781 1.4375 -10.84375 C 1.269531 -10.882812 1.046875 -10.914062 0.765625 -10.9375 L 0.765625 -11.53125 L 6.453125 -11.53125 C 7.410156 -11.53125 8.296875 -11.378906 9.109375 -11.078125 C 9.921875 -10.785156 10.617188 -10.375 11.203125 -9.84375 C 11.796875 -9.3125 12.253906 -8.679688 12.578125 -7.953125 C 12.910156 -7.222656 13.078125 -6.429688 13.078125 -5.578125 C 13.078125 -4.753906 12.921875 -4 12.609375 -3.3125 C 12.304688 -2.632812 11.875 -2.050781 11.3125 -1.5625 C 10.757812 -1.070312 10.097656 -0.6875 9.328125 -0.40625 C 8.554688 -0.132812 7.703125 0 6.765625 0 Z M 4.5625 -10.625 C 4.382812 -10.625 4.296875 -10.539062 4.296875 -10.375 L 4.296875 -2.625 C 4.296875 -2.039062 4.472656 -1.609375 4.828125 -1.328125 C 5.191406 -1.046875 5.75 -0.90625 6.5 -0.90625 C 7.8125 -0.90625 8.816406 -1.300781 9.515625 -2.09375 C 10.222656 -2.882812 10.578125 -4.035156 10.578125 -5.546875 C 10.578125 -6.347656 10.484375 -7.0625 10.296875 -7.6875 C 10.109375 -8.3125 9.832031 -8.84375 9.46875 -9.28125 C 9.113281 -9.71875 8.675781 -10.050781 8.15625 -10.28125 C 7.644531 -10.507812 7.066406 -10.625 6.421875 -10.625 Z M 4.5625 -10.625 "/></g></g></g><g fill="#2461e9" fill-opacity="1"><g transform="translate(126.984234, 32.993371)"><g><path d="M 11.34375 -4.640625 C 11.34375 -3.796875 11.25 -3.070312 11.0625 -2.46875 C 10.875 -1.863281 10.585938 -1.363281 10.203125 -0.96875 C 9.816406 -0.582031 9.316406 -0.296875 8.703125 -0.109375 C 8.085938 0.0664062 7.347656 0.15625 6.484375 0.15625 C 4.878906 0.15625 3.703125 -0.179688 2.953125 -0.859375 C 2.210938 -1.535156 1.84375 -2.613281 1.84375 -4.09375 L 1.84375 -8.203125 C 1.84375 -8.585938 1.835938 -8.910156 1.828125 -9.171875 C 1.816406 -9.441406 1.800781 -9.664062 1.78125 -9.84375 C 1.757812 -10.019531 1.726562 -10.164062 1.6875 -10.28125 C 1.65625 -10.394531 1.617188 -10.492188 1.578125 -10.578125 C 1.484375 -10.710938 1.347656 -10.804688 1.171875 -10.859375 C 1.003906 -10.910156 0.75 -10.9375 0.40625 -10.9375 L 0.40625 -11.53125 L 5.78125 -11.53125 L 5.78125 -10.9375 C 5.363281 -10.9375 5.054688 -10.910156 4.859375 -10.859375 C 4.660156 -10.816406 4.503906 -10.734375 4.390625 -10.609375 C 4.316406 -10.523438 4.257812 -10.425781 4.21875 -10.3125 C 4.175781 -10.195312 4.140625 -10.046875 4.109375 -9.859375 C 4.085938 -9.679688 4.070312 -9.457031 4.0625 -9.1875 C 4.050781 -8.914062 4.046875 -8.585938 4.046875 -8.203125 L 4.046875 -4.265625 C 4.046875 -3.128906 4.285156 -2.285156 4.765625 -1.734375 C 5.253906 -1.191406 6.003906 -0.921875 7.015625 -0.921875 C 9.066406 -0.921875 10.09375 -2.066406 10.09375 -4.359375 L 10.09375 -7.828125 C 10.09375 -8.242188 10.082031 -8.597656 10.0625 -8.890625 C 10.050781 -9.191406 10.03125 -9.445312 10 -9.65625 C 9.96875 -9.875 9.921875 -10.050781 9.859375 -10.1875 C 9.804688 -10.332031 9.742188 -10.445312 9.671875 -10.53125 C 9.523438 -10.675781 9.34375 -10.78125 9.125 -10.84375 C 8.90625 -10.90625 8.601562 -10.9375 8.21875 -10.9375 L 8.21875 -11.53125 L 13.0625 -11.53125 L 13.0625 -10.9375 C 12.695312 -10.9375 12.410156 -10.910156 12.203125 -10.859375 C 12.003906 -10.804688 11.851562 -10.707031 11.75 -10.5625 C 11.664062 -10.46875 11.597656 -10.347656 11.546875 -10.203125 C 11.503906 -10.066406 11.46875 -9.890625 11.4375 -9.671875 C 11.40625 -9.453125 11.378906 -9.191406 11.359375 -8.890625 C 11.347656 -8.597656 11.34375 -8.242188 11.34375 -7.828125 Z M 11.34375 -4.640625 "/></g></g></g><g fill="#2461e9" fill-opacity="1"><g transform="translate(145.292906, 32.993371)"><g><path d="M 10.59375 -11.53125 L 11.328125 -11.53125 L 11.03125 -7.75 L 10.421875 -7.75 C 10.210938 -8.664062 9.804688 -9.390625 9.203125 -9.921875 C 8.597656 -10.453125 7.867188 -10.71875 7.015625 -10.71875 C 6.421875 -10.71875 5.894531 -10.597656 5.4375 -10.359375 C 4.976562 -10.128906 4.59375 -9.796875 4.28125 -9.359375 C 3.96875 -8.921875 3.726562 -8.390625 3.5625 -7.765625 C 3.394531 -7.140625 3.3125 -6.441406 3.3125 -5.671875 C 3.3125 -4.117188 3.628906 -2.925781 4.265625 -2.09375 C 4.898438 -1.257812 5.835938 -0.84375 7.078125 -0.84375 C 8.078125 -0.84375 8.898438 -1.109375 9.546875 -1.640625 C 10.203125 -2.179688 10.671875 -2.988281 10.953125 -4.0625 L 11.609375 -4.0625 L 11.609375 0 L 10.90625 0 L 10.703125 -1.1875 C 9.597656 -0.289062 8.265625 0.15625 6.703125 0.15625 C 5.785156 0.15625 4.957031 0.0195312 4.21875 -0.25 C 3.476562 -0.519531 2.847656 -0.898438 2.328125 -1.390625 C 1.816406 -1.890625 1.414062 -2.492188 1.125 -3.203125 C 0.84375 -3.910156 0.703125 -4.703125 0.703125 -5.578125 C 0.703125 -6.484375 0.851562 -7.3125 1.15625 -8.0625 C 1.457031 -8.8125 1.878906 -9.453125 2.421875 -9.984375 C 2.960938 -10.523438 3.609375 -10.941406 4.359375 -11.234375 C 5.117188 -11.535156 5.957031 -11.6875 6.875 -11.6875 C 7.488281 -11.6875 8.054688 -11.597656 8.578125 -11.421875 C 9.109375 -11.253906 9.6875 -10.984375 10.3125 -10.609375 Z M 10.59375 -11.53125 "/></g></g></g><g fill="#2461e9" fill-opacity="1"><g transform="translate(162.747595, 32.993371)"><g><path d="M 12.21875 -8.234375 L 11.5625 -8.234375 C 11.53125 -8.722656 11.457031 -9.128906 11.34375 -9.453125 C 11.226562 -9.785156 11.066406 -10.046875 10.859375 -10.234375 C 10.648438 -10.429688 10.394531 -10.566406 10.09375 -10.640625 C 9.800781 -10.722656 9.453125 -10.765625 9.046875 -10.765625 C 8.660156 -10.765625 8.347656 -10.753906 8.109375 -10.734375 C 7.878906 -10.722656 7.703125 -10.695312 7.578125 -10.65625 C 7.453125 -10.625 7.367188 -10.578125 7.328125 -10.515625 C 7.285156 -10.453125 7.265625 -10.378906 7.265625 -10.296875 L 7.265625 -2.4375 C 7.265625 -2.125 7.285156 -1.851562 7.328125 -1.625 C 7.378906 -1.394531 7.472656 -1.207031 7.609375 -1.0625 C 7.753906 -0.914062 7.957031 -0.800781 8.21875 -0.71875 C 8.488281 -0.644531 8.847656 -0.601562 9.296875 -0.59375 L 9.296875 0 L 3.015625 0 L 3.015625 -0.59375 C 3.460938 -0.601562 3.820312 -0.644531 4.09375 -0.71875 C 4.363281 -0.800781 4.570312 -0.914062 4.71875 -1.0625 C 4.863281 -1.207031 4.957031 -1.394531 5 -1.625 C 5.039062 -1.851562 5.0625 -2.125 5.0625 -2.4375 L 5.0625 -10.296875 C 5.0625 -10.378906 5.039062 -10.453125 5 -10.515625 C 4.96875 -10.578125 4.894531 -10.625 4.78125 -10.65625 C 4.675781 -10.695312 4.519531 -10.722656 4.3125 -10.734375 C 4.113281 -10.753906 3.847656 -10.765625 3.515625 -10.765625 C 3.160156 -10.765625 2.816406 -10.742188 2.484375 -10.703125 C 2.160156 -10.671875 1.875 -10.570312 1.625 -10.40625 C 1.375 -10.238281 1.171875 -9.988281 1.015625 -9.65625 C 0.859375 -9.320312 0.773438 -8.847656 0.765625 -8.234375 L 0.1875 -8.234375 L 0.328125 -11.53125 L 12.0625 -11.53125 Z M 12.21875 -8.234375 "/></g></g></g><g fill="#2461e9" fill-opacity="1"><g transform="translate(180.262213, 32.993371)"><g><path d="M 5.890625 0 L 0.546875 0 L 0.546875 -0.59375 C 0.878906 -0.601562 1.144531 -0.632812 1.34375 -0.6875 C 1.550781 -0.75 1.710938 -0.851562 1.828125 -1 C 1.941406 -1.15625 2.015625 -1.367188 2.046875 -1.640625 C 2.085938 -1.910156 2.109375 -2.28125 2.109375 -2.75 L 2.109375 -8.78125 C 2.109375 -9.195312 2.09375 -9.539062 2.0625 -9.8125 C 2.03125 -10.09375 1.960938 -10.3125 1.859375 -10.46875 C 1.753906 -10.632812 1.609375 -10.75 1.421875 -10.8125 C 1.242188 -10.875 1 -10.914062 0.6875 -10.9375 L 0.6875 -11.53125 L 5.734375 -11.53125 L 5.734375 -10.9375 C 5.429688 -10.914062 5.1875 -10.875 5 -10.8125 C 4.8125 -10.75 4.664062 -10.632812 4.5625 -10.46875 C 4.46875 -10.3125 4.398438 -10.09375 4.359375 -9.8125 C 4.328125 -9.539062 4.3125 -9.195312 4.3125 -8.78125 L 4.3125 -2.75 C 4.3125 -2.28125 4.328125 -1.910156 4.359375 -1.640625 C 4.398438 -1.367188 4.476562 -1.15625 4.59375 -1 C 4.707031 -0.851562 4.863281 -0.75 5.0625 -0.6875 C 5.269531 -0.632812 5.546875 -0.601562 5.890625 -0.59375 Z M 5.890625 0 "/></g></g></g><g fill="#2461e9" fill-opacity="1"><g transform="translate(191.81385, 32.993371)"><g><path d="M 7.078125 -11.6875 C 7.972656 -11.6875 8.8125 -11.53125 9.59375 -11.21875 C 10.375 -10.914062 11.050781 -10.492188 11.625 -9.953125 C 12.195312 -9.410156 12.644531 -8.773438 12.96875 -8.046875 C 13.300781 -7.316406 13.46875 -6.523438 13.46875 -5.671875 C 13.46875 -4.867188 13.300781 -4.113281 12.96875 -3.40625 C 12.632812 -2.695312 12.179688 -2.078125 11.609375 -1.546875 C 11.035156 -1.023438 10.359375 -0.609375 9.578125 -0.296875 C 8.796875 0.00390625 7.960938 0.15625 7.078125 0.15625 C 6.179688 0.15625 5.34375 0.00390625 4.5625 -0.296875 C 3.789062 -0.609375 3.113281 -1.023438 2.53125 -1.546875 C 1.945312 -2.078125 1.488281 -2.695312 1.15625 -3.40625 C 0.832031 -4.113281 0.671875 -4.867188 0.671875 -5.671875 C 0.671875 -6.523438 0.832031 -7.316406 1.15625 -8.046875 C 1.488281 -8.773438 1.941406 -9.410156 2.515625 -9.953125 C 3.097656 -10.492188 3.773438 -10.914062 4.546875 -11.21875 C 5.328125 -11.53125 6.171875 -11.6875 7.078125 -11.6875 Z M 7.078125 -0.828125 C 7.648438 -0.828125 8.171875 -0.9375 8.640625 -1.15625 C 9.109375 -1.382812 9.507812 -1.703125 9.84375 -2.109375 C 10.175781 -2.523438 10.425781 -3.03125 10.59375 -3.625 C 10.769531 -4.226562 10.859375 -4.898438 10.859375 -5.640625 C 10.859375 -6.410156 10.769531 -7.109375 10.59375 -7.734375 C 10.425781 -8.359375 10.175781 -8.894531 9.84375 -9.34375 C 9.507812 -9.789062 9.109375 -10.128906 8.640625 -10.359375 C 8.171875 -10.597656 7.648438 -10.71875 7.078125 -10.71875 C 6.484375 -10.71875 5.953125 -10.597656 5.484375 -10.359375 C 5.023438 -10.128906 4.628906 -9.789062 4.296875 -9.34375 C 3.972656 -8.894531 3.722656 -8.359375 3.546875 -7.734375 C 3.367188 -7.109375 3.28125 -6.410156 3.28125 -5.640625 C 3.28125 -4.898438 3.367188 -4.226562 3.546875 -3.625 C 3.722656 -3.03125 3.972656 -2.523438 4.296875 -2.109375 C 4.628906 -1.703125 5.023438 -1.382812 5.484375 -1.15625 C 5.953125 -0.9375 6.484375 -0.828125 7.078125 -0.828125 Z M 7.078125 -0.828125 "/></g></g></g><g fill="#2461e9" fill-opacity="1"><g transform="translate(211.066418, 32.993371)"><g><path d="M 10.046875 0.15625 L 3.40625 -9.3125 L 3.34375 -9.3125 L 3.34375 -2.859375 C 3.34375 -2.359375 3.359375 -1.960938 3.390625 -1.671875 C 3.429688 -1.390625 3.507812 -1.164062 3.625 -1 C 3.738281 -0.84375 3.894531 -0.738281 4.09375 -0.6875 C 4.300781 -0.632812 4.570312 -0.601562 4.90625 -0.59375 L 4.90625 0 L 0.453125 0 L 0.453125 -0.59375 C 0.816406 -0.601562 1.109375 -0.632812 1.328125 -0.6875 C 1.554688 -0.75 1.734375 -0.851562 1.859375 -1 C 1.984375 -1.15625 2.066406 -1.367188 2.109375 -1.640625 C 2.148438 -1.910156 2.171875 -2.28125 2.171875 -2.75 L 2.171875 -8.78125 C 2.171875 -9.195312 2.148438 -9.539062 2.109375 -9.8125 C 2.066406 -10.09375 1.988281 -10.3125 1.875 -10.46875 C 1.769531 -10.632812 1.613281 -10.75 1.40625 -10.8125 C 1.207031 -10.875 0.9375 -10.914062 0.59375 -10.9375 L 0.59375 -11.53125 L 4.78125 -11.53125 L 10.8125 -2.875 L 10.875 -2.875 L 10.875 -8.671875 C 10.875 -9.160156 10.859375 -9.550781 10.828125 -9.84375 C 10.796875 -10.144531 10.71875 -10.375 10.59375 -10.53125 C 10.476562 -10.695312 10.316406 -10.800781 10.109375 -10.84375 C 9.910156 -10.894531 9.644531 -10.925781 9.3125 -10.9375 L 9.3125 -11.53125 L 13.765625 -11.53125 L 13.765625 -10.9375 C 13.398438 -10.925781 13.101562 -10.894531 12.875 -10.84375 C 12.65625 -10.789062 12.484375 -10.6875 12.359375 -10.53125 C 12.234375 -10.382812 12.148438 -10.171875 12.109375 -9.890625 C 12.066406 -9.609375 12.046875 -9.238281 12.046875 -8.78125 L 12.046875 0.15625 Z M 10.046875 0.15625 "/></g></g></g><g fill="#2461e9" fill-opacity="1"><g transform="translate(230.274034, 32.993371)"><g><path d="M 0.8125 -3.828125 L 1.390625 -3.828125 C 1.535156 -2.867188 1.914062 -2.117188 2.53125 -1.578125 C 3.15625 -1.035156 3.921875 -0.765625 4.828125 -0.765625 C 5.191406 -0.765625 5.53125 -0.804688 5.84375 -0.890625 C 6.15625 -0.984375 6.421875 -1.113281 6.640625 -1.28125 C 6.859375 -1.445312 7.023438 -1.640625 7.140625 -1.859375 C 7.265625 -2.085938 7.328125 -2.34375 7.328125 -2.625 C 7.328125 -2.863281 7.289062 -3.066406 7.21875 -3.234375 C 7.144531 -3.410156 7 -3.582031 6.78125 -3.75 C 6.570312 -3.914062 6.285156 -4.082031 5.921875 -4.25 C 5.554688 -4.425781 5.085938 -4.625 4.515625 -4.84375 C 3.335938 -5.289062 2.46875 -5.8125 1.90625 -6.40625 C 1.351562 -7 1.078125 -7.703125 1.078125 -8.515625 C 1.078125 -8.984375 1.164062 -9.410156 1.34375 -9.796875 C 1.53125 -10.191406 1.785156 -10.523438 2.109375 -10.796875 C 2.429688 -11.078125 2.816406 -11.296875 3.265625 -11.453125 C 3.722656 -11.609375 4.226562 -11.6875 4.78125 -11.6875 C 5.289062 -11.6875 5.769531 -11.601562 6.21875 -11.4375 C 6.664062 -11.28125 7.109375 -11.046875 7.546875 -10.734375 L 7.828125 -11.484375 L 8.1875 -11.484375 L 8.34375 -8.234375 L 7.765625 -8.234375 C 7.523438 -9.054688 7.148438 -9.6875 6.640625 -10.125 C 6.128906 -10.5625 5.539062 -10.78125 4.875 -10.78125 C 4.25 -10.78125 3.742188 -10.625 3.359375 -10.3125 C 2.972656 -10.007812 2.78125 -9.617188 2.78125 -9.140625 C 2.78125 -8.929688 2.816406 -8.742188 2.890625 -8.578125 C 2.960938 -8.410156 3.09375 -8.25 3.28125 -8.09375 C 3.46875 -7.945312 3.726562 -7.796875 4.0625 -7.640625 C 4.394531 -7.492188 4.816406 -7.320312 5.328125 -7.125 C 6.035156 -6.863281 6.632812 -6.59375 7.125 -6.3125 C 7.613281 -6.039062 8.015625 -5.742188 8.328125 -5.421875 C 8.648438 -5.109375 8.882812 -4.773438 9.03125 -4.421875 C 9.1875 -4.078125 9.265625 -3.695312 9.265625 -3.28125 C 9.265625 -2.769531 9.148438 -2.304688 8.921875 -1.890625 C 8.703125 -1.472656 8.394531 -1.113281 8 -0.8125 C 7.613281 -0.507812 7.144531 -0.269531 6.59375 -0.09375 C 6.050781 0.0703125 5.453125 0.15625 4.796875 0.15625 C 4.191406 0.15625 3.648438 0.0703125 3.171875 -0.09375 C 2.691406 -0.257812 2.195312 -0.53125 1.6875 -0.90625 L 1.390625 0 L 1.03125 0 Z M 0.8125 -3.828125 "/></g></g></g></g></g></svg>