<svg xmlns="http://www.w3.org/2000/svg" xmlns:xlink="http://www.w3.org/1999/xlink" width="500" zoomAndPan="magnify" viewBox="0 0 375 374.999991" height="500" preserveAspectRatio="xMidYMid meet" version="1.0"><defs><clipPath id="11008c3bd7"><path d="M 2.34375 0 L 375 0 L 375 375 L 2.34375 375 Z M 2.34375 0 " clip-rule="nonzero"/></clipPath></defs><rect x="-37.5" width="450" fill="#ffffff" y="-37.499999" height="449.999989" fill-opacity="1"/><rect x="-37.5" width="450" fill="#ffffff" y="-37.499999" height="449.999989" fill-opacity="1"/><g clip-path="url(#11008c3bd7)"><path fill="#0e172a" d="M 96.832031 0 L 312.773438 297.507812 L 312.773438 374.941406 L 295.324219 374.941406 L 65.03125 56.941406 C 47.582031 33.351562 30.128906 8.726562 2.464844 8.726562 L 2.464844 0 Z M 134.3125 367.824219 L 134.3125 375 L 2.464844 375 L 2.464844 367.824219 C 22.957031 367.824219 39.371094 362.199219 47.121094 348.308594 C 58.429688 327.816406 63.539062 291.367188 66.121094 261.117188 L 71.746094 261.117188 C 74.847656 291.367188 80.472656 328.332031 91.777344 348.308594 C 99.414062 361.625 115.3125 367.824219 134.3125 367.824219 Z M 374.878906 0 L 374.878906 7.175781 C 355.363281 7.175781 339.980469 13.316406 332.289062 26.691406 C 320.980469 46.722656 315.355469 83.117188 312.257812 113.882812 L 306.6875 113.882812 C 304.105469 83.632812 298.480469 47.183594 287.171875 26.691406 C 279.996094 12.859375 263.578125 7.175781 243.03125 7.175781 L 243.03125 0 Z M 374.878906 0 " fill-opacity="1" fill-rule="nonzero"/></g></svg>
